<svg width="384" height="108" viewBox="0 0 384 108" fill="none" xmlns="http://www.w3.org/2000/svg">
<g filter="url(#filter0_d_4_11)">
<rect width="70" height="100" transform="translate(4)" fill="#43C59E"/>
</g>
<path d="M33.28 75.2H69.52V92H10V76.4L46 24.56H10V7.75999H69.52V23.36L33.28 75.2Z" fill="black"/>
<path d="M144.724 56.6C144.724 58.68 144.604 60.88 144.364 63.2H91.8044C92.2044 69.68 94.4044 74.76 98.4044 78.44C102.484 82.04 107.404 83.84 113.164 83.84C117.884 83.84 121.804 82.76 124.924 80.6C128.124 78.36 130.364 75.4 131.644 71.72H143.404C141.644 78.04 138.124 83.2 132.844 87.2C127.564 91.12 121.004 93.08 113.164 93.08C106.924 93.08 101.324 91.68 96.3644 88.88C91.4844 86.08 87.6444 82.12 84.8444 77C82.0444 71.8 80.6444 65.8 80.6444 59C80.6444 52.2 82.0044 46.24 84.7244 41.12C87.4444 36 91.2444 32.08 96.1244 29.36C101.084 26.56 106.764 25.16 113.164 25.16C119.404 25.16 124.924 26.52 129.724 29.24C134.524 31.96 138.204 35.72 140.764 40.52C143.404 45.24 144.724 50.6 144.724 56.6ZM133.444 54.32C133.444 50.16 132.524 46.6 130.684 43.64C128.844 40.6 126.324 38.32 123.124 36.8C120.004 35.2 116.524 34.4 112.684 34.4C107.164 34.4 102.444 36.16 98.5244 39.68C94.6844 43.2 92.4844 48.08 91.9244 54.32H133.444Z" fill="black"/>
<path d="M219.138 56.6C219.138 58.68 219.018 60.88 218.778 63.2H166.218C166.618 69.68 168.818 74.76 172.818 78.44C176.898 82.04 181.818 83.84 187.578 83.84C192.298 83.84 196.218 82.76 199.338 80.6C202.538 78.36 204.778 75.4 206.058 71.72H217.818C216.058 78.04 212.538 83.2 207.258 87.2C201.978 91.12 195.418 93.08 187.578 93.08C181.338 93.08 175.738 91.68 170.778 88.88C165.898 86.08 162.058 82.12 159.258 77C156.458 71.8 155.058 65.8 155.058 59C155.058 52.2 156.418 46.24 159.138 41.12C161.858 36 165.658 32.08 170.538 29.36C175.498 26.56 181.178 25.16 187.578 25.16C193.818 25.16 199.338 26.52 204.138 29.24C208.938 31.96 212.618 35.72 215.178 40.52C217.818 45.24 219.138 50.6 219.138 56.6ZM207.858 54.32C207.858 50.16 206.938 46.6 205.098 43.64C203.258 40.6 200.738 38.32 197.538 36.8C194.418 35.2 190.938 34.4 187.098 34.4C181.578 34.4 176.858 36.16 172.938 39.68C169.098 43.2 166.898 48.08 166.338 54.32H207.858Z" fill="black"/>
<path d="M265.592 25.04C273.593 25.04 280.073 27.48 285.033 32.36C289.992 37.16 292.473 44.12 292.473 53.24V92H281.673V54.8C281.673 48.24 280.033 43.24 276.753 39.8C273.473 36.28 268.993 34.52 263.312 34.52C257.553 34.52 252.952 36.32 249.512 39.92C246.152 43.52 244.473 48.76 244.473 55.64V92H233.553V26.24H244.473V35.6C246.633 32.24 249.552 29.64 253.232 27.8C256.992 25.96 261.112 25.04 265.592 25.04Z" fill="black"/>
<path d="M360.11 92L342.95 66.2L327.83 92H304.55L331.55 49.16L303.95 7.75999H327.83L344.75 33.2L359.63 7.75999H382.91L356.15 50.24L383.99 92H360.11Z" fill="black"/>
<defs>
<filter id="filter0_d_4_11" x="0" y="0" width="78" height="108" filterUnits="userSpaceOnUse" color-interpolation-filters="sRGB">
<feFlood flood-opacity="0" result="BackgroundImageFix"/>
<feColorMatrix in="SourceAlpha" type="matrix" values="0 0 0 0 0 0 0 0 0 0 0 0 0 0 0 0 0 0 127 0" result="hardAlpha"/>
<feOffset dy="4"/>
<feGaussianBlur stdDeviation="2"/>
<feComposite in2="hardAlpha" operator="out"/>
<feColorMatrix type="matrix" values="0 0 0 0 0 0 0 0 0 0 0 0 0 0 0 0 0 0 0.25 0"/>
<feBlend mode="normal" in2="BackgroundImageFix" result="effect1_dropShadow_4_11"/>
<feBlend mode="normal" in="SourceGraphic" in2="effect1_dropShadow_4_11" result="shape"/>
</filter>
</defs>
</svg>
